<?xml version="1.0" encoding="UTF-8" standalone="no"?>
<svg width="25px" height="26px" viewBox="0 0 25 26" version="1.1" xmlns="http://www.w3.org/2000/svg" xmlns:xlink="http://www.w3.org/1999/xlink">
    <!-- Generator: Sketch 3.7.2 (28276) - http://www.bohemiancoding.com/sketch -->
    <title>sqft</title>
    <desc>Created with Sketch.</desc>
    <defs></defs>
    <g id="Icons" stroke="none" stroke-width="1" fill="none" fill-rule="evenodd">
        <g id="SQFT">
            <g id="sqft">
                <g id="Group-13" stroke-linecap="square" stroke="#979797">
                    <g id="Group-5-Copy-3" transform="translate(23.000000, 2.000000)">
                        <path d="M1,0 L1,2" id="Line"></path>
                        <path d="M1,5 L1,8" id="Line-Copy-2"></path>
                        <path d="M1,10 L1,13" id="Line-Copy-3"></path>
                        <path d="M1,15 L1,18" id="Line-Copy-4"></path>
                        <path d="M1,20 L1,23" id="Line-Copy-5"></path>
                    </g>
                    <g id="Group-5-Copy-3" transform="translate(0.500000, 2.000000)">
                        <path d="M1,0 L1,2" id="Line"></path>
                        <path d="M1,5 L1,8" id="Line-Copy-2"></path>
                        <path d="M1,10 L1,13" id="Line-Copy-3"></path>
                        <path d="M1,15 L1,18" id="Line-Copy-4"></path>
                        <path d="M1,20 L1,23" id="Line-Copy-5"></path>
                    </g>
                    <g id="Group-5-Copy-2" transform="translate(12.500000, 1.000000) rotate(-270.000000) translate(-12.500000, -1.000000) translate(11.500000, -10.500000)">
                        <path d="M1,0 L1,3" id="Line"></path>
                        <path d="M1,5 L1,8" id="Line-Copy-2"></path>
                        <path d="M1,10 L1,13" id="Line-Copy-3"></path>
                        <path d="M1,15 L1,18" id="Line-Copy-4"></path>
                        <path d="M1,20 L1,22.5495098" id="Line-Copy-5"></path>
                    </g>
                    <g id="Group-5-Copy-4" transform="translate(12.500000, 25.000000) rotate(-270.000000) translate(-12.500000, -25.000000) translate(11.500000, 13.500000)">
                        <path d="M1,0 L1,3" id="Line"></path>
                        <path d="M1,5 L1,8" id="Line-Copy-2"></path>
                        <path d="M1,10 L1,13" id="Line-Copy-3"></path>
                        <path d="M1,15 L1,18" id="Line-Copy-4"></path>
                        <path d="M1,20 L1,22.5495098" id="Line-Copy-5"></path>
                    </g>
                </g>
                <text id="SQ.FT" font-family="Avenir-Heavy, Avenir" font-size="6" font-weight="600" fill="#979797">
                    <tspan x="4" y="15">SQ.FT</tspan>
                </text>
            </g>
        </g>
    </g>
</svg>